<svg width="49" height="50" viewBox="0 0 49 50" fill="none" xmlns="http://www.w3.org/2000/svg">
<path d="M8.99609 14.0625H10.9102V16.0156C10.9102 16.8246 11.5529 17.4805 12.3457 17.4805C13.1385 17.4805 13.7812 16.8246 13.7812 16.0156V14.0625H15.6953C16.4881 14.0625 17.1309 13.4066 17.1309 12.5977C17.1309 11.7887 16.4881 11.1328 15.6953 11.1328H13.7812V9.17969C13.7812 8.3707 13.1385 7.71484 12.3457 7.71484C11.5529 7.71484 10.9102 8.3707 10.9102 9.17969V11.1328H8.99609C8.20329 11.1328 7.56055 11.7887 7.56055 12.5977C7.56055 13.4066 8.20329 14.0625 8.99609 14.0625Z" fill="white"/>
<path d="M31.2949 14.0625H37.0371C37.8299 14.0625 38.4727 13.4066 38.4727 12.5977C38.4727 11.7887 37.8299 11.1328 37.0371 11.1328H31.2949C30.5021 11.1328 29.8594 11.7887 29.8594 12.5977C29.8594 13.4066 30.5021 14.0625 31.2949 14.0625Z" fill="white"/>
<path d="M37.5156 35.8398H30.8164C30.0236 35.8398 29.3809 36.4957 29.3809 37.3047C29.3809 38.1137 30.0236 38.7695 30.8164 38.7695H37.5156C38.3084 38.7695 38.9512 38.1137 38.9512 37.3047C38.9512 36.4957 38.3084 35.8398 37.5156 35.8398Z" fill="white"/>
<path d="M37.5156 30.957H30.8164C30.0236 30.957 29.3809 31.6129 29.3809 32.4219C29.3809 33.2309 30.0236 33.8867 30.8164 33.8867H37.5156C38.3084 33.8867 38.9512 33.2309 38.9512 32.4219C38.9512 31.6129 38.3084 30.957 37.5156 30.957Z" fill="white"/>
<path d="M15.7534 31.3862C15.1928 30.8141 14.2838 30.8141 13.7232 31.3862L12.3457 32.7917L10.9682 31.3861C10.4077 30.814 9.49868 30.814 8.93805 31.3861C8.37742 31.9582 8.37742 32.8856 8.93805 33.4577L10.3156 34.8633L8.93805 36.269C8.37742 36.8411 8.37742 37.7685 8.93805 38.3406C9.21836 38.6266 9.58577 38.7696 9.95317 38.7696C10.3206 38.7696 10.688 38.6266 10.9682 38.3405L12.3457 36.9349L13.7233 38.3406C14.0035 38.6266 14.3709 38.7696 14.7383 38.7696C15.1057 38.7696 15.4731 38.6266 15.7534 38.3405C16.314 37.7684 16.314 36.841 15.7534 36.2689L14.3759 34.8633L15.7534 33.4577C16.3141 32.8857 16.3141 31.9582 15.7534 31.3862Z" fill="white"/>
<path d="M46.5117 26.4813V4.39453C46.5117 1.97139 44.5798 0 42.2051 0H4.30664C1.93196 0 0 1.97139 0 4.39453V43.0664C0 45.4896 1.93196 47.4609 4.30664 47.4609H25.9516C28.305 49.0641 31.1302 50 34.166 50C42.3456 50 49 43.2097 49 34.8633C49 31.7656 48.0828 28.8827 46.5117 26.4813ZM43.6406 4.39453V23.2256C41.069 21.0419 37.7653 19.7266 34.166 19.7266C30.5667 19.7266 27.263 21.0419 24.6914 23.2256V2.92969H42.2051C42.9966 2.92969 43.6406 3.58682 43.6406 4.39453ZM4.30664 2.92969H21.8203V22.2656H2.87109V4.39453C2.87109 3.58682 3.51508 2.92969 4.30664 2.92969ZM2.87109 43.0664V25.1953H21.8203V26.4813C20.2493 28.8827 19.332 31.7656 19.332 34.8633C19.332 38.536 20.6211 41.9071 22.7611 44.5312H4.30664C3.51508 44.5312 2.87109 43.8741 2.87109 43.0664ZM34.166 47.0703C27.5697 47.0703 22.2031 41.5942 22.2031 34.8633C22.2031 28.1323 27.5697 22.6562 34.166 22.6562C40.7624 22.6562 46.1289 28.1323 46.1289 34.8633C46.1289 41.5942 40.7624 47.0703 34.166 47.0703Z" fill="white"/>
</svg>
