<svg width="50" height="50" viewBox="0 0 50 50" fill="none" xmlns="http://www.w3.org/2000/svg">
<g clip-path="url(#clip0)">
<path d="M48.1933 27.6547H37.0069C37.1036 27.5006 37.1966 27.3437 37.2825 27.1819C38.7421 24.4327 38.3079 21.1718 36.4415 18.9046L32.6118 12.1482C30.4677 8.17725 26.7815 7.81465 23.2164 7.46396C22.7052 7.41367 22.1766 7.36172 21.6568 7.29971C18.0514 6.86875 17.3478 6.48262 14.7296 5.04609C14.4204 4.87637 14.0853 4.69258 13.718 4.49365C13.7706 4.13672 13.7433 3.76914 13.6338 3.41299C13.4408 2.78486 13.0163 2.27109 12.4422 1.96826L9.28832 0.287597C8.71029 -0.0195322 8.04613 -0.083204 7.4185 0.108788C6.78998 0.300878 6.27485 0.72539 5.96821 1.30351L1.11781 10.4346C0.810587 11.0118 0.746916 11.6755 0.938712 12.3035C1.13061 12.9319 1.55473 13.4473 2.13295 13.7544L5.28578 15.4346C5.6516 15.6289 6.04477 15.721 6.43285 15.721C7.31215 15.7209 8.1644 15.2478 8.6059 14.4186L8.65278 14.3303C9.64799 14.9477 10.2309 15.5312 10.7619 16.3939C12.3229 18.9262 13.849 19.6638 15.3248 20.377C15.8381 20.625 16.323 20.8594 16.8289 21.175L23.235 25.1698C23.2823 25.1992 23.3303 25.2285 23.3787 25.2576C23.5644 26.1129 23.8956 26.9232 24.3551 27.6546H14.2039C13.6645 27.6546 13.2273 28.0918 13.2273 28.6312V46.9225C13.2273 48.6194 14.607 50 16.303 50H46.0943C47.7902 50 49.1699 48.6194 49.1699 46.9225V28.6312C49.1699 28.0919 48.7327 27.6547 48.1933 27.6547ZM35.5576 26.2661C35.2821 26.785 34.9299 27.2502 34.5102 27.6547H26.8543C26.3362 27.1568 25.9221 26.5646 25.6333 25.9114C25.712 25.8999 25.7907 25.8847 25.8695 25.8635C26.4651 25.7032 26.945 25.2873 27.2957 24.6273C27.9543 23.3881 27.6901 21.3769 26.778 19.7605C28.474 18.0571 31.1032 17.6339 33.2752 18.7888C35.9621 20.2216 36.9859 23.5758 35.5576 26.2661ZM25.5687 18.2133L22.3369 14.8574C22.3277 14.8463 22.3191 14.8355 22.3111 14.8254C22.4247 14.7814 22.5997 14.7295 22.861 14.6855C25.4234 14.257 26.1602 14.978 27.3534 16.9679C26.7096 17.2885 26.1078 17.7057 25.5687 18.2133ZM6.88139 13.5016C6.75336 13.7421 6.44223 13.8376 6.20307 13.7104L3.05024 12.0303C3.04985 12.0301 3.04945 12.0299 3.04906 12.0297C2.89115 11.9458 2.82934 11.8079 2.80658 11.7332C2.78373 11.6585 2.75795 11.5098 2.84223 11.3517L7.6934 2.21924C7.77719 2.06123 7.91479 1.99941 7.9893 1.97666C8.02504 1.96582 8.07768 1.9542 8.14008 1.9542C8.20844 1.9542 8.28852 1.96807 8.37094 2.01182L11.5275 3.69394C11.6829 3.77588 11.7443 3.9126 11.767 3.98672C11.7902 4.06191 11.8163 4.21172 11.7318 4.3706L6.88139 13.5016ZM24.2675 23.5121L17.8624 19.5179C17.2675 19.1467 16.7119 18.8782 16.1747 18.6186C14.7843 17.9466 13.6862 17.4159 12.4247 15.3697C11.6363 14.0886 10.7218 13.2981 9.57133 12.6012L12.926 6.28594C13.2358 6.4542 13.523 6.61172 13.7904 6.7584C16.4492 8.21728 17.4441 8.76318 21.4255 9.23906C21.9657 9.30342 22.5044 9.35644 23.0254 9.40771C26.5016 9.74961 29.2475 10.0197 30.8975 13.0838C30.9009 13.09 30.9042 13.0962 30.9078 13.1023L32.8374 16.5067C31.6535 16.1483 30.4203 16.0957 29.2434 16.3264C27.8189 13.9048 26.501 12.0965 22.5383 12.7594C21.3503 12.9588 20.6137 13.4273 20.349 14.1521C20.188 14.593 20.147 15.2962 20.8661 16.1428C20.8792 16.1583 20.8928 16.1733 20.907 16.188L24.4531 19.8702C25.5776 21.0356 25.9341 23.0279 25.5712 23.7107C25.4647 23.9112 25.3825 23.972 25.3622 23.9774C25.3215 23.9883 25.079 24.017 24.2675 23.5121ZM46.0942 48.0469H16.303C15.684 48.0469 15.1804 47.5425 15.1804 46.9225V35.3957H20.4624C21.0018 35.3957 21.439 34.9585 21.439 34.4191C21.439 33.8798 21.0018 33.4426 20.4624 33.4426H15.1804V29.6077H47.2167V33.4426H29.2239C28.6845 33.4426 28.2473 33.8798 28.2473 34.4191C28.2473 34.9585 28.6845 35.3957 29.2239 35.3957H47.2167V46.9225C47.2167 47.5425 46.7132 48.0469 46.0942 48.0469Z" fill="white"/>
<path d="M40.5212 38.2539H21.875C21.3356 38.2539 20.8984 38.6911 20.8984 39.2305V44.2104C20.8984 44.7497 21.3356 45.1869 21.875 45.1869H40.5212C41.0605 45.1869 41.4978 44.7497 41.4978 44.2104V39.2305C41.4978 38.6911 41.0605 38.2539 40.5212 38.2539ZM39.5446 43.2338H22.8516V40.207H39.5446V43.2338Z" fill="white"/>
<path d="M24.8427 35.3955H24.8482C25.3876 35.3955 25.8221 34.9583 25.8221 34.4189C25.8221 33.8796 25.3821 33.4424 24.8428 33.4424C24.3034 33.4424 23.8662 33.8796 23.8662 34.4189C23.8662 34.9583 24.3033 35.3955 24.8427 35.3955Z" fill="white"/>
</g>
<defs>
<clipPath id="clip0">
<rect width="50" height="50" fill="white"/>
</clipPath>
</defs>
</svg>
