<svg width="27" height="27" viewBox="0 0 27 27" fill="none" xmlns="http://www.w3.org/2000/svg">
<g clip-path="url(#clip0)">
<path d="M1.60587 6.68048C1.80411 6.77266 2.03943 6.68676 2.13156 6.48858C3.18588 4.20913 4.9016 2.21577 6.99279 0.820487C7.11008 0.737859 7.2622 0.862329 7.21202 0.991494C4.19246 8.92679 8.93745 18.1918 17.205 20.2322C17.6584 20.2234 17.7557 19.5868 17.3077 19.4543C9.53468 17.4227 5.11414 8.76412 7.9551 1.26439C8.27268 0.425181 7.29761 -0.345434 6.553 0.16247C4.34173 1.63801 2.52903 3.74428 1.41397 6.1548C1.32179 6.35292 1.40769 6.5883 1.60587 6.68048Z" fill="#6C6C6C"/>
<path d="M26.7498 19.3727C26.493 19.0487 26.0767 18.9319 25.6894 19.0753C23.5297 19.8746 21.1803 20.1196 18.895 19.784C18.6787 19.7523 18.4778 19.9018 18.446 20.118C18.4142 20.3343 18.5638 20.5353 18.78 20.5671C21.1961 20.9219 23.6804 20.6628 25.9641 19.8175C26.0505 19.7857 26.1048 19.8331 26.1295 19.8643C26.1541 19.8953 26.1878 19.9588 26.1373 20.0351C25.6322 20.7974 25.0466 21.5146 24.397 22.1668C16.7875 29.8633 3.5586 26.0149 1.18755 15.4788C0.620501 12.9926 0.741857 10.4018 1.53848 7.98659C1.60692 7.77902 1.49422 7.5553 1.28664 7.48681C1.07933 7.41838 0.855352 7.53108 0.786865 7.73865C-0.964206 12.9047 0.447119 18.9473 4.35675 22.7679C10.7506 29.2656 21.8429 28.1117 26.797 20.4721C27.0249 20.1283 27.0064 19.6967 26.7498 19.3727Z" fill="#6C6C6C"/>
<path d="M14.8674 9.80253C14.8783 9.81308 14.8832 9.82817 14.8806 9.84294L14.5263 11.917C14.4046 12.5943 15.1382 13.1257 15.7442 12.7987L17.5935 11.8226C17.6074 11.8153 17.6239 11.8154 17.6378 11.8226L19.487 12.7987C19.7705 12.9485 20.1096 12.9254 20.3708 12.736C20.631 12.5475 20.759 12.2336 20.705 11.917L20.3506 9.84294C20.3481 9.82817 20.353 9.81308 20.3638 9.80253L21.8666 8.3319C22.3613 7.85734 22.0821 6.99687 21.4011 6.90459L19.3285 6.6022C19.3132 6.59998 19.3 6.59038 19.2932 6.57666L18.3681 4.69489C18.2261 4.40601 17.9377 4.22656 17.6156 4.22656C17.2936 4.22656 17.0052 4.40601 16.8632 4.69489L15.9381 6.57671C15.9313 6.59048 15.9181 6.60003 15.9027 6.60225L13.8301 6.90459C13.5124 6.95091 13.2534 7.16919 13.154 7.47422C13.0548 7.77898 13.1355 8.1076 13.3646 8.3319L14.8674 9.80253ZM13.9066 7.71936C13.9155 7.69198 13.9357 7.68902 13.9443 7.68776L16.0169 7.38542C16.2904 7.34558 16.5264 7.17379 16.6483 6.9259L17.5734 5.04408C17.5772 5.03627 17.5862 5.01802 17.6156 5.01802C17.645 5.01802 17.654 5.03627 17.6578 5.04408L18.5829 6.92595C18.7048 7.17384 18.9408 7.34564 19.2143 7.38547L21.2869 7.68781C21.2956 7.68908 21.3158 7.69203 21.3247 7.71941C21.3335 7.74638 21.3197 7.75983 21.3131 7.76632L19.8102 9.23695C19.6138 9.42917 19.5242 9.70555 19.5704 9.97633L19.9248 12.0504C19.9264 12.0595 19.9296 12.0784 19.9063 12.0953C19.8825 12.1126 19.8643 12.1029 19.8564 12.0988L18.0072 11.1228C17.8846 11.0581 17.7501 11.0257 17.6156 11.0257C17.4811 11.0257 17.3466 11.0581 17.2241 11.1228L15.3748 12.0989C15.367 12.103 15.3487 12.1126 15.3249 12.0953C15.3017 12.0785 15.3049 12.0595 15.3064 12.0505L15.6608 9.97638C15.707 9.7056 15.6174 9.42922 15.421 9.237L13.9182 7.76637C13.9115 7.75978 13.8978 7.74632 13.9066 7.71936Z" fill="#6C6C6C"/>
</g>
<defs>
<clipPath id="clip0">
<rect width="27" height="27" fill="white"/>
</clipPath>
</defs>
</svg>
