<svg width="27" height="27" viewBox="0 0 27 27" fill="none" xmlns="http://www.w3.org/2000/svg">
<path d="M20.25 16.0312H6.75C6.52643 16.0319 6.31221 16.121 6.15412 16.2791C5.99603 16.4372 5.90692 16.6514 5.90625 16.875V25.3125C5.90692 25.5361 5.99603 25.7503 6.15412 25.9084C6.31221 26.0665 6.52643 26.1556 6.75 26.1562H20.25C20.4736 26.1556 20.6878 26.0665 20.8459 25.9084C21.004 25.7503 21.0931 25.5361 21.0938 25.3125V16.875C21.0931 16.6514 21.004 16.4372 20.8459 16.2791C20.6878 16.121 20.4736 16.0319 20.25 16.0312ZM6.75 16.875H7.95656C7.88013 17.1649 7.72818 17.4293 7.51622 17.6412C7.30425 17.8532 7.03986 18.0051 6.75 18.0816V16.875ZM6.75 21.5705C7.04045 21.6471 7.30527 21.7996 7.51731 22.0124C7.72934 22.2252 7.88094 22.4905 7.95656 22.7812H6.75V21.5705ZM11.8125 25.3125H6.75V24.8906H11.8125V25.3125ZM11.8125 24.0469H6.75V23.625H11.8125V24.0469ZM14.3438 25.3125H12.6562V23.625H14.3438V25.3125ZM20.25 25.3125H15.1875V24.8906H20.25V25.3125ZM20.25 24.0469H15.1875V23.625H20.25V24.0469ZM20.25 22.7812H19.0434C19.1199 22.4914 19.2718 22.227 19.4838 22.015C19.6957 21.8031 19.9601 21.6511 20.25 21.5747V22.7812ZM20.25 20.7098C19.7324 20.7973 19.2549 21.0437 18.8837 21.4149C18.5125 21.7861 18.266 22.2636 18.1786 22.7812H8.82141C8.73395 22.2636 8.48753 21.7861 8.11634 21.4149C7.74515 21.0437 7.26761 20.7973 6.75 20.7098V18.9464C7.26761 18.859 7.74515 18.6125 8.11634 18.2413C8.48753 17.8701 8.73395 17.3926 8.82141 16.875H18.1786C18.266 17.3926 18.5125 17.8701 18.8837 18.2413C19.2549 18.6125 19.7324 18.859 20.25 18.9464V20.7098ZM20.25 18.0816C19.9601 18.0051 19.6957 17.8532 19.4838 17.6412C19.2718 17.4293 19.1199 17.1649 19.0434 16.875H20.25V18.0816Z" fill="#6C6C6C"/>
<path d="M13.5 17.7188C13.0828 17.7188 12.675 17.8425 12.3281 18.0742C11.9812 18.306 11.7108 18.6355 11.5512 19.0209C11.3915 19.4063 11.3498 19.8305 11.4312 20.2396C11.5125 20.6488 11.7134 21.0247 12.0084 21.3197C12.3034 21.6147 12.6793 21.8156 13.0885 21.897C13.4977 21.9784 13.9218 21.9366 14.3072 21.7769C14.6927 21.6173 15.0221 21.3469 15.2539 21C15.4857 20.6532 15.6094 20.2453 15.6094 19.8281C15.6087 19.2689 15.3862 18.7328 14.9908 18.3373C14.5954 17.9419 14.0592 17.7194 13.5 17.7188ZM13.5 21.0938C13.2497 21.0938 13.005 21.0195 12.7969 20.8805C12.5887 20.7414 12.4265 20.5437 12.3307 20.3125C12.2349 20.0812 12.2099 19.8267 12.2587 19.5812C12.3075 19.3357 12.4281 19.1102 12.6051 18.9332C12.7821 18.7562 13.0076 18.6357 13.2531 18.5868C13.4986 18.538 13.7531 18.5631 13.9843 18.6588C14.2156 18.7546 14.4133 18.9169 14.5523 19.125C14.6914 19.3331 14.7656 19.5778 14.7656 19.8281C14.7656 20.1638 14.6323 20.4857 14.3949 20.7231C14.1576 20.9604 13.8357 21.0938 13.5 21.0938Z" fill="#6C6C6C"/>
<path d="M22.3594 13.5V6.75H22.7812C22.8931 6.75 23.0004 6.70555 23.0796 6.62644C23.1587 6.54732 23.2031 6.44001 23.2031 6.32812V4.64062C23.2031 4.52874 23.1587 4.42143 23.0796 4.34231C23.0004 4.2632 22.8931 4.21875 22.7812 4.21875H18.1406V3.375H18.5625C18.6744 3.375 18.7817 3.33055 18.8608 3.25144C18.9399 3.17232 18.9844 3.06501 18.9844 2.95312V1.26562C18.9844 1.15374 18.9399 1.04643 18.8608 0.967314C18.7817 0.888197 18.6744 0.84375 18.5625 0.84375H8.4375C8.32561 0.84375 8.21831 0.888197 8.13919 0.967314C8.06007 1.04643 8.01562 1.15374 8.01562 1.26562V2.95312C8.01562 3.06501 8.06007 3.17232 8.13919 3.25144C8.21831 3.33055 8.32561 3.375 8.4375 3.375H8.85938V4.21875H4.21875C4.10686 4.21875 3.99956 4.2632 3.92044 4.34231C3.84132 4.42143 3.79688 4.52874 3.79688 4.64062V6.32812C3.79688 6.44001 3.84132 6.54732 3.92044 6.62644C3.99956 6.70555 4.10686 6.75 4.21875 6.75H4.64062V13.5H2.53125V14.3438H24.4688V13.5H22.3594ZM8.85938 13.5H5.48438V6.75H8.85938V13.5ZM8.85938 5.90625H4.64062V5.0625H8.85938V5.90625ZM8.85938 1.6875H18.1406V2.53125H8.85938V1.6875ZM14.3438 13.5H12.6562V11.8125H14.3438V13.5ZM17.2969 13.5H15.1875V11.8125H15.6094V10.9688H11.3906V11.8125H11.8125V13.5H9.70312V3.375H17.2969V13.5ZM21.5156 13.5H18.1406V6.75H21.5156V13.5ZM18.1406 5.90625V5.0625H22.3594V5.90625H18.1406Z" fill="#6C6C6C"/>
<path d="M10.5469 4.21875H11.3906V5.0625H10.5469V4.21875Z" fill="#6C6C6C"/>
<path d="M12.2344 4.21875H13.0781V5.0625H12.2344V4.21875Z" fill="#6C6C6C"/>
<path d="M13.9219 4.21875H14.7656V5.0625H13.9219V4.21875Z" fill="#6C6C6C"/>
<path d="M15.6094 4.21875H16.4531V5.0625H15.6094V4.21875Z" fill="#6C6C6C"/>
<path d="M10.5469 5.90625H11.3906V6.75H10.5469V5.90625Z" fill="#6C6C6C"/>
<path d="M12.2344 5.90625H13.0781V6.75H12.2344V5.90625Z" fill="#6C6C6C"/>
<path d="M13.9219 5.90625H14.7656V6.75H13.9219V5.90625Z" fill="#6C6C6C"/>
<path d="M15.6094 5.90625H16.4531V6.75H15.6094V5.90625Z" fill="#6C6C6C"/>
<path d="M10.5469 7.59375H11.3906V8.4375H10.5469V7.59375Z" fill="#6C6C6C"/>
<path d="M12.2344 7.59375H13.0781V8.4375H12.2344V7.59375Z" fill="#6C6C6C"/>
<path d="M13.9219 7.59375H14.7656V8.4375H13.9219V7.59375Z" fill="#6C6C6C"/>
<path d="M15.6094 7.59375H16.4531V8.4375H15.6094V7.59375Z" fill="#6C6C6C"/>
<path d="M10.5469 9.28125H11.3906V10.125H10.5469V9.28125Z" fill="#6C6C6C"/>
<path d="M12.2344 9.28125H13.0781V10.125H12.2344V9.28125Z" fill="#6C6C6C"/>
<path d="M13.9219 9.28125H14.7656V10.125H13.9219V9.28125Z" fill="#6C6C6C"/>
<path d="M15.6094 9.28125H16.4531V10.125H15.6094V9.28125Z" fill="#6C6C6C"/>
<path d="M18.9844 7.59375H20.6719V8.4375H18.9844V7.59375Z" fill="#6C6C6C"/>
<path d="M18.9844 9.28125H20.6719V10.125H18.9844V9.28125Z" fill="#6C6C6C"/>
<path d="M18.9844 10.9688H20.6719V11.8125H18.9844V10.9688Z" fill="#6C6C6C"/>
<path d="M6.32812 7.59375H8.01562V8.4375H6.32812V7.59375Z" fill="#6C6C6C"/>
<path d="M6.32812 9.28125H8.01562V10.125H6.32812V9.28125Z" fill="#6C6C6C"/>
<path d="M6.32812 10.9688H8.01562V11.8125H6.32812V10.9688Z" fill="#6C6C6C"/>
<path d="M25.3125 13.5H26.1562V14.3438H25.3125V13.5Z" fill="#6C6C6C"/>
<path d="M0.84375 13.5H1.6875V14.3438H0.84375V13.5Z" fill="#6C6C6C"/>
<path d="M23.625 15.1875H24.4688V16.0312H23.625V15.1875Z" fill="#6C6C6C"/>
<path d="M23.625 16.875H24.4688V17.7188H23.625V16.875Z" fill="#6C6C6C"/>
<path d="M23.625 18.5625H24.4688V19.4062H23.625V18.5625Z" fill="#6C6C6C"/>
<path d="M23.625 20.25H24.4688V21.0938H23.625V20.25Z" fill="#6C6C6C"/>
<path d="M21.9375 20.25H22.7812V21.0938H21.9375V20.25Z" fill="#6C6C6C"/>
<path d="M2.53125 15.1875H3.375V16.0312H2.53125V15.1875Z" fill="#6C6C6C"/>
<path d="M2.53125 16.875H3.375V17.7188H2.53125V16.875Z" fill="#6C6C6C"/>
<path d="M2.53125 18.5625H3.375V19.4062H2.53125V18.5625Z" fill="#6C6C6C"/>
<path d="M2.53125 20.25H3.375V21.0938H2.53125V20.25Z" fill="#6C6C6C"/>
<path d="M4.21875 20.25H5.0625V21.0938H4.21875V20.25Z" fill="#6C6C6C"/>
</svg>
