<svg width="90" height="90" viewBox="0 0 90 90" fill="none" xmlns="http://www.w3.org/2000/svg">
<g clip-path="url(#clip0)">
<path d="M74.4572 90.0006C74.4572 90.0006 83.4901 83.2497 83.4901 69.5197C83.4901 46.6367 48.4428 47.4798 48.4428 31.2207H41.558C41.558 47.4798 6.51074 46.6367 6.51074 69.5197C6.51057 83.2497 15.5434 90.0006 15.5434 90.0006H74.4572Z" fill="#F6F1F1"/>
<path d="M30.0122 69.5165C30.0122 83.2467 33.5289 89.9975 33.5289 89.9975H15.5434C15.5434 89.9975 6.51074 83.2467 6.51074 69.5165C6.51074 46.6344 41.5582 47.4766 41.5582 31.2168H43.6588C43.659 47.4766 30.0122 46.6328 30.0122 69.5165Z" fill="#DFDFDF"/>
<path d="M59.6532 19.0801C59.6978 19.0364 59.7421 18.9922 59.7861 18.9479C60.6885 18.0358 62.212 18.9327 61.8701 20.1694C61.1357 22.8266 59.718 25.3343 57.6173 27.4146C51.1969 33.7728 40.9121 33.7352 34.5363 27.3322C28.1788 20.9476 28.1871 10.6178 34.5613 4.24367C36.6292 2.17578 39.1133 0.777787 41.7441 0.0498767C42.991 -0.295182 43.8798 1.23095 42.961 2.14203C42.9489 2.15415 42.9366 2.16628 42.9244 2.17841C38.2808 6.82203 38.2808 14.3504 42.9244 18.9942C47.5489 23.6185 54.9823 23.6578 59.6532 19.0801Z" fill="#F6E266"/>
<path d="M38.7722 27.3321C41.4341 30.0051 44.7768 31.5683 48.2368 32.0197C43.3721 32.6559 38.2797 31.0907 34.5361 27.3321C28.1791 20.9472 28.1865 10.6169 34.5623 4.24328C36.6291 2.17644 39.1136 0.777574 41.7438 0.0500152C42.5459 -0.171997 43.1988 0.378375 43.3201 1.04423C41.6842 1.824 40.1509 2.89082 38.7984 4.24328C32.4246 10.6171 32.4153 20.9472 38.7722 27.3321Z" fill="#EAB14D"/>
<path d="M53.8432 2.17985L55.2452 5.02065C55.4168 5.36817 55.7483 5.60916 56.1318 5.66489L59.2669 6.12051C60.2328 6.26079 60.6185 7.44784 59.9196 8.12899L57.6509 10.3403C57.3734 10.6108 57.2468 11.0006 57.3122 11.3825L57.8478 14.5049C58.0129 15.4668 57.0032 16.2003 56.1392 15.7463L53.3352 14.272C52.992 14.0917 52.5823 14.0917 52.2392 14.272L49.4351 15.7463C48.5713 16.2005 47.5616 15.467 47.7265 14.5049L48.2621 11.3825C48.3277 11.0006 48.2009 10.6108 47.9234 10.3403L45.6547 8.12899C44.9558 7.44766 45.3415 6.26079 46.3074 6.12051L49.4425 5.66489C49.826 5.60916 50.1576 5.36834 50.3291 5.02065L51.7312 2.17985C52.1632 1.30463 53.4111 1.30463 53.8432 2.17985Z" fill="#F6E266"/>
<path d="M53.7585 2.02944C53.4264 2.09835 53.1206 2.31105 52.9471 2.66173L51.5444 5.50253C51.3728 5.85128 51.0407 6.09193 50.6584 6.148L47.5228 6.6031C46.5566 6.74302 46.1706 7.92937 46.87 8.6121L49.1383 10.8225C49.4162 11.0931 49.5431 11.483 49.4777 11.8653L48.9423 14.9879C48.8864 15.3162 48.9665 15.6165 49.1307 15.8534C48.3529 16.025 47.5807 15.3517 47.7261 14.5011L48.2615 11.3785C48.3267 10.9962 48.2 10.6063 47.9238 10.3358L45.6538 8.12536C44.9561 7.44456 45.3423 6.25628 46.3066 6.11636L49.4422 5.66126C49.8265 5.60536 50.1566 5.36472 50.3283 5.01773L51.731 2.17693C52.1376 1.35234 53.2661 1.30382 53.7585 2.02944Z" fill="#EAB14D"/>
</g>
<defs>
<clipPath id="clip0">
<rect width="90" height="90" fill="white"/>
</clipPath>
</defs>
</svg>
