<svg width="28" height="27" viewBox="0 0 28 27" fill="none" xmlns="http://www.w3.org/2000/svg">
<path d="M24.8281 6.12156H21.3281V4.11328C21.3281 2.42678 19.9052 1.05469 18.1562 1.05469H9.84375C8.09479 1.05469 6.67188 2.42678 6.67188 4.11328V6.12156H3.17188C1.42291 6.12156 0 7.49366 0 9.18016V22.8867C0 24.5732 1.42291 25.9453 3.17188 25.9453H24.8281C26.5771 25.9453 28 24.5732 28 22.8867V9.18016C28 7.49366 26.5771 6.12156 24.8281 6.12156ZM9.84375 2.10938H18.1562C19.1128 2.10938 19.9201 2.73607 20.1608 3.58594H7.83918C8.07991 2.73607 8.88716 2.10938 9.84375 2.10938ZM1.09375 9.18016C1.09375 8.07521 2.02601 7.17625 3.17188 7.17625H11.546C11.848 7.17625 12.0929 6.94016 12.0929 6.64891C12.0929 6.35766 11.848 6.12156 11.546 6.12156H7.76562V4.64062H20.2344V6.12156H16.4679C16.1658 6.12156 15.921 6.35771 15.921 6.64891C15.921 6.94011 16.1658 7.17625 16.4679 7.17625H24.8281C25.974 7.17625 26.9062 8.07521 26.9062 9.18016V10.8619C26.9062 13.3545 24.8032 15.3824 22.2183 15.3824H16.6319V14.2613C16.6319 13.5992 16.0733 13.0606 15.3867 13.0606H12.6271C11.9405 13.0606 11.3819 13.5993 11.3819 14.2613V15.3824H5.78173C3.19676 15.3823 1.09375 13.3544 1.09375 10.8619V9.18016ZM12.4757 16.437H15.5382V17.1914C15.5382 18.0056 14.8513 18.668 14.0069 18.668C13.1626 18.668 12.4757 18.0056 12.4757 17.1914V16.437ZM12.4757 15.3823V14.2613C12.4757 14.1807 12.5436 14.1152 12.6272 14.1152H15.3868C15.4703 14.1152 15.5382 14.1807 15.5382 14.2613V15.3823H12.4757ZM26.9062 22.8867C26.9062 23.9917 25.974 24.8906 24.8281 24.8906H3.17188C2.02601 24.8906 1.09375 23.9917 1.09375 22.8867V14.1209C2.1449 15.5229 3.85454 16.437 5.78173 16.437H11.3819V17.1914C11.3819 18.5872 12.5595 19.7227 14.0069 19.7227C15.4544 19.7227 16.6319 18.5872 16.6319 17.1914V16.437H22.2183C24.1454 16.437 25.8551 15.5229 26.9062 14.1209V22.8867Z" fill="#50C2C9"/>
<path d="M14.0068 7.17578C14.1507 7.17578 14.2918 7.11983 14.3935 7.02122C14.4951 6.92318 14.5537 6.78713 14.5537 6.64844C14.5537 6.50975 14.4952 6.37369 14.3935 6.27561C14.2918 6.17752 14.1507 6.12109 14.0068 6.12109C13.863 6.12109 13.7219 6.17747 13.6196 6.27561C13.5179 6.37369 13.46 6.50975 13.46 6.64844C13.46 6.78713 13.5179 6.92318 13.6196 7.02122C13.7219 7.11988 13.863 7.17578 14.0068 7.17578Z" fill="#50C2C9"/>
</svg>
