<svg width="26" height="26" viewBox="0 0 26 26" fill="none" xmlns="http://www.w3.org/2000/svg">
<path d="M13 0.8125C6.26925 0.8125 0.8125 6.26925 0.8125 13C0.8125 19.7308 6.26925 25.1875 13 25.1875C19.7308 25.1875 25.1875 19.7308 25.1875 13C25.1875 6.26925 19.7308 0.8125 13 0.8125ZM15.8864 18.3186C15.1019 19.1055 14.1257 19.5 12.9582 19.5C11.8515 19.5 10.9338 19.1685 10.2054 18.5059C9.477 17.8425 9.0545 16.9752 8.9375 15.9047L11.2064 15.6175C11.2791 16.2195 11.4733 16.6806 11.7906 16.9987C12.1079 17.3168 12.4914 17.4765 12.9419 17.4765C13.4253 17.4765 13.8328 17.2851 14.1643 16.9037C14.495 16.5214 14.6612 16.0062 14.6612 15.3571C14.6612 14.7436 14.5023 14.2573 14.185 13.8986C13.8678 13.5391 13.4818 13.3608 13.0256 13.3608C12.725 13.3608 12.3663 13.4209 11.949 13.5423L12.2078 11.5538C12.842 11.5712 13.3258 11.4274 13.6593 11.1235C13.9929 10.8197 14.1598 10.4158 14.1598 9.91209C14.1598 9.4835 14.0376 9.14184 13.793 8.88794C13.548 8.63322 13.2226 8.50566 12.8168 8.50566C12.4166 8.50566 12.0746 8.64987 11.791 8.93953C11.5074 9.22919 11.3352 9.65128 11.2738 10.2074L9.11381 9.82597C9.26372 9.05572 9.49081 8.44066 9.79387 7.98037C10.0965 7.52009 10.519 7.15853 11.0618 6.89488C11.6029 6.63163 12.2107 6.5 12.8834 6.5C14.0343 6.5 14.9577 6.88147 15.6524 7.64644C16.2252 8.27166 16.5116 8.97691 16.5116 9.76503C16.5116 10.8822 15.925 11.7739 14.7517 12.4398C15.4525 12.5962 16.0128 12.946 16.4328 13.4903C16.8525 14.0347 17.0625 14.6916 17.0625 15.4623C17.0625 16.5795 16.6705 17.5313 15.8864 18.3186Z" fill="#50C2C9"/>
</svg>
