<svg width="26" height="26" viewBox="0 0 26 26" fill="none" xmlns="http://www.w3.org/2000/svg">
<path d="M13 0C5.82053 0 0 5.82053 0 13C0 20.1795 5.82053 26 13 26C20.1795 26 26 20.1795 26 13C26 5.82053 20.1795 0 13 0ZM17.3333 17.4746V19.9333H8.66667C8.76024 19.0031 9.04797 18.1029 9.51123 17.2909C9.98053 16.458 10.907 15.3552 12.2915 13.9789C13.4056 12.8678 14.089 12.1143 14.3416 11.7182C14.6813 11.1722 14.8516 10.6314 14.8516 10.0984C14.8516 9.50777 14.7034 9.05407 14.4075 8.73643C14.1115 8.4188 13.7024 8.26063 13.1803 8.26063C12.6642 8.26063 12.2529 8.42747 11.9483 8.75983C11.6432 9.09263 11.4673 9.646 11.4205 10.4178L8.95657 10.1539C9.10303 8.69743 9.56367 7.65223 10.338 7.0174C11.1128 6.38387 12.0805 6.06667 13.2422 6.06667C14.5145 6.06667 15.5155 6.43413 16.2426 7.16863C16.9698 7.90313 17.3333 8.81747 17.3333 9.9099C17.3333 10.5313 17.2293 11.1237 17.0209 11.6857C16.8129 12.2486 16.4827 12.8366 16.0312 13.452C15.7317 13.8597 15.1918 14.4473 14.4118 15.213C13.6322 15.98 13.1378 16.4883 12.9298 16.7397C12.7374 16.9673 12.5679 17.2133 12.4237 17.4742H17.3333V17.4746Z" fill="#50C2C9"/>
</svg>
